PathFileType	4	(x/y/z)	Passive_Pref0001.trc
DataRate	CameraRate	NumFrames	NumMarkers	Units	OrigDataRate	OrigDataStartFrame	OrigNumFrames
240	240	4	50	mm	240	117	311
Frame#	Time	R_AC			L_AC			HEAD			STERN			C7			L_IC			R_IC			L_ASIS			R_ASIS			L_GT			R_GT			R_PSIS			L_PSIS			SACRAL			L_LAT_KNEE			L_MED_KNEE			R_LAT_KNEE			R_MED_KNEE			L_LAT_ANK			L_MED_ANK			R_LAT_ANK			R_MED_ANK			L_THIGH_PROX_POST			L_THIGH_PROX_ANT			L_THIGH_DIST_ANT			L_THIGH_DIST_POST			R_THIGH_PROX_POST			R_THIGH_PROX_ANT			R_THIGH_DIST_ANT			R_THIGH_DIST_POST			L_SHANK_PROX_POST			L_SHANK_PROX_ANT			L_SHANK_DIST_ANT			L_SHANK_DIST_POST			R_SHANK_PROX_POST			R_SHANK_PROX_ANT			R_SHANK_DIST_ANT			R_SHANK_DIST_POST			L_HEEL_LAT			L_HEEL_SUP			L_HEEL_MED			R_HEEL_LAT			R_HEEL_SUP			R_HEEL_MED			L_1ST_MET			L_5TH_MET			L_TOE			R_1ST_MET			R_5TH_MET			R_TOE			
		X1	Y1	Z1	X2	Y2	Z2	X3	Y3	Z3	X4	Y4	Z4	X5	Y5	Z5	X6	Y6	Z6	X7	Y7	Z7	X8	Y8	Z8	X9	Y9	Z9	X10	Y10	Z10	X11	Y11	Z11	X12	Y12	Z12	X13	Y13	Z13	X14	Y14	Z14	X15	Y15	Z15	X16	Y16	Z16	X17	Y17	Z17	X18	Y18	Z18	X19	Y19	Z19	X20	Y20	Z20	X21	Y21	Z21	X22	Y22	Z22	X23	Y23	Z23	X24	Y24	Z24	X25	Y25	Z25	X26	Y26	Z26	X27	Y27	Z27	X28	Y28	Z28	X29	Y29	Z29	X30	Y30	Z30	X31	Y31	Z31	X32	Y32	Z32	X33	Y33	Z33	X34	Y34	Z34	X35	Y35	Z35	X36	Y36	Z36	X37	Y37	Z37	X38	Y38	Z38	X39	Y39	Z39	X40	Y40	Z40	X41	Y41	Z41	X42	Y42	Z42	X43	Y43	Z43	X44	Y44	Z44	X45	Y45	Z45	X46	Y46	Z46	X47	Y47	Z47	X48	Y48	Z48	X49	Y49	Z49	X50	Y50	Z50	

117	0.48489	-184.58	1532.4	425.35	-187.59	1553.4	23.626	-117.4	1850.1	251.05	-99.146	1483.2	231.85	-249.1	1582.6	230.22	-233.18	1120.5	72.895	-207.06	1138.8	407.89	-168.31	1031.3	97.895	-139.18	1046.5	366.71	-284.29	959.5	62.127	-229.08	965.57	429.17	-363.14	1039.4	301.29	-374.52	1046.9	217.57	-379.38	1009.8	256.54	-305.7	557.61	90.04	-278.31	565.49	226.3	-59.202	578.47	419.7	-45.929	573.26	283.03	-426.89	129.56	118.83	-440.27	126.7	199.48	-46.595	110.12	389.48	-2.716	144.23	297.33	-268.61	792.29	65.943	-204.5	780.3	89.174	-214.64	708.67	95.541	-276.05	716.66	76.175	-211.72	806.47	417.02	-159.8	834.36	439.73	-134.81	763.05	437.41	-180.02	739.98	413.57	-311.46	502.66	102.78	-254.38	521.09	115.06	-263.81	455.14	128.78	-318.08	441.1	107.31	-98.796	414.17	422.05	-41.176	419.8	426.85	-35.239	344.79	419.22	-90.388	336.82	411.81	-493.3	63.843	115.97	-511.03	91.658	147.66	-508.33	62.423	184.34	-101.91	52.08	338.6	-97.942	80.583	304.14	-63.386	61.293	284.89	-285.74	41.158	232.06	-295.57	39.717	118.12	-233.42	57.968	201.31	136.03	103.81	343.09	77.305	78.44	443.46	167.01	123.94	408.12
118	0.48907	-178.89	1531.8	425.78	-182.61	1553	24.126	-112.27	1849.5	251.65	-93.875	1482.6	232.1	-243.82	1582.1	230.8	-228.61	1120.2	73.301	-201.38	1138.2	408.23	-163.75	1030.8	98.04	-133.63	1045.8	366.75	-280.05	959.27	62.628	-223.61	964.94	429.45	-357.99	1039.2	302.09	-369.48	1046.8	218.43	-374.35	1009.7	257.4	-303.22	557.53	90.312	-275.79	565.21	226.59	-55.038	577.22	419.66	-42.298	571.91	282.91	-426.51	129.99	118.93	-439.91	127.02	199.56	-31.015	109.27	390.16	11.561	144.33	297.93	-265.11	792.17	66.334	-201.06	779.83	89.406	-211.55	708.22	95.742	-272.92	716.54	76.516	-207.15	805.7	417.09	-155.12	833.29	439.92	-130.54	761.9	437.37	-175.78	739.1	413.47	-309.28	502.6	103.03	-252.1	520.76	115.31	-261.85	454.85	129	-316.19	441.07	107.55	-90.929	412.07	422.38	-33.45	419.16	427.01	-25.668	344.32	419.51	-80.625	334.93	412.28	-493.17	64.296	116.05	-510.75	92.081	147.76	-508.19	62.876	184.42	-85.014	49.588	339.66	-81.872	78.064	305.13	-46.92	59.68	285.84	-285.65	41.053	232.06	-295.51	39.736	118.14	-233.27	57.765	201.33	151.44	107.79	343.48	93.634	81.211	443.99	182.03	128.94	408.42
119	0.49325	-173.17	1531.2	426.22	-177.61	1552.5	24.644	-107.13	1849	252.27	-88.59	1482.1	232.36	-238.5	1581.6	231.39	-224.03	1119.8	73.72	-195.67	1137.6	408.56	-159.17	1030.3	98.185	-128.04	1045	366.78	-275.78	959.02	63.134	-218.09	964.26	429.73	-352.82	1039	302.9	-364.4	1046.7	219.3	-369.29	1009.6	258.27	-300.72	557.45	90.599	-273.25	564.91	226.89	-50.92	575.92	419.64	-38.769	570.49	282.8	-426.12	130.43	119.03	-439.53	127.33	199.63	-15.584	108.65	390.8	25.622	144.63	298.47	-261.61	792.05	66.736	-197.61	779.34	89.639	-208.44	707.77	95.957	-269.78	716.42	76.864	-202.57	804.91	417.18	-150.41	832.18	440.11	-126.27	760.7	437.34	-171.55	738.18	413.39	-307.09	502.54	103.29	-249.79	520.42	115.56	-259.89	454.55	129.23	-314.28	441.04	107.8	-83.087	410.05	422.74	-25.782	418.56	427.18	-16.182	343.94	419.79	-70.918	333.15	412.77	-493.04	64.756	116.14	-510.47	92.509	147.86	-508.04	63.335	184.51	-68.267	47.37	340.7	-65.969	75.804	306.11	-30.662	58.335	286.75	-285.55	40.951	232.06	-295.45	39.756	118.17	-233.12	57.563	201.35	166.55	111.95	343.7	109.76	84.179	444.39	196.78	134.1	408.54
120	0.49743	-167.43	1530.6	426.68	-172.59	1552.1	25.181	-101.99	1848.4	252.88	-83.29	1481.5	232.63	-233.15	1581	232	-219.41	1119.4	74.15	-189.92	1136.9	408.91	-154.55	1029.7	98.329	-122.42	1044.2	366.8	-271.49	958.76	63.643	-212.52	963.56	430.01	-347.61	1038.8	303.72	-359.28	1046.5	220.17	-364.2	1009.4	259.15	-298.2	557.36	90.9	-270.7	564.6	227.21	-46.836	574.59	419.63	-35.33	569.01	282.71	-425.72	130.87	119.14	-439.14	127.63	199.71	-0.33032	108.24	391.39	39.448	145.1	298.95	-258.08	791.92	67.145	-194.14	778.84	89.872	-205.32	707.31	96.186	-266.62	716.28	77.22	-197.97	804.1	417.29	-145.66	831.03	440.31	-121.98	759.45	437.32	-167.32	737.23	413.33	-304.88	502.47	103.57	-247.46	520.08	115.81	-257.9	454.25	129.47	-312.35	441.01	108.06	-75.276	408.09	423.15	-18.175	418.01	427.34	-6.7889	343.63	420.05	-61.276	331.47	413.27	-492.91	65.225	116.23	-510.18	92.944	147.98	-507.89	63.799	184.6	-51.697	45.42	341.71	-50.258	73.801	307.06	-14.637	57.254	287.6	-285.46	40.852	232.06	-295.39	39.777	118.19	-232.98	57.36	201.38	181.35	116.27	343.76	125.67	87.324	444.64	211.24	139.38	408.47
